<svg width="14" height="14" viewBox="0 0 14 14" fill="none" xmlns="http://www.w3.org/2000/svg">
<g clip-path="url(#clip0_2521_26)">
<path fill-rule="evenodd" clip-rule="evenodd" d="M5.00195 1C5.00195 0.585786 4.66617 0.25 4.25195 0.25C3.83774 0.25 3.50195 0.585786 3.50195 1V1.80236C1.89107 1.99311 0.611241 3.25991 0.426226 4.8489C0.191258 6.8669 0.191258 8.59148 0.426226 10.6095C0.620912 12.2815 2.02785 13.5968 3.75716 13.677C4.79368 13.725 5.8521 13.75 6.9999 13.75C8.14771 13.75 9.20613 13.725 10.2426 13.677C11.972 13.5968 13.3789 12.2815 13.5736 10.6095C13.8085 8.59148 13.8085 6.8669 13.5736 4.8489C13.3886 3.25998 12.1088 1.99321 10.498 1.80239V1C10.498 0.585786 10.1623 0.25 9.74805 0.25C9.33383 0.25 8.99805 0.585786 8.99805 1V1.73531C8.35472 1.71749 7.69364 1.70837 6.9999 1.70837C6.30624 1.70837 5.64522 1.71749 5.00195 1.73531V1ZM4.25338 6.78395V6.7828H4.25453H4.25568V6.78395V6.7851H4.25453H4.25338V6.78395ZM4.25453 5.92395C4.0377 5.92395 3.80767 5.98626 3.63226 6.16168C3.45684 6.33709 3.39453 6.56712 3.39453 6.78395C3.39453 7.00078 3.45684 7.23081 3.63226 7.40623C3.80767 7.58164 4.0377 7.64395 4.25453 7.64395C4.47136 7.64395 4.70139 7.58164 4.87681 7.40623C5.05222 7.23081 5.11453 7.00078 5.11453 6.78395C5.11453 6.56712 5.05222 6.33709 4.87681 6.16168C4.70139 5.98626 4.47136 5.92395 4.25453 5.92395ZM4.25338 9.78395V9.7828H4.25453H4.25568V9.78395V9.7851H4.25453H4.25338V9.78395ZM4.25453 8.92395C4.0377 8.92395 3.80767 8.98626 3.63226 9.16168C3.45684 9.33709 3.39453 9.56712 3.39453 9.78395C3.39453 10.0008 3.45684 10.2308 3.63226 10.4062C3.80767 10.5816 4.0377 10.644 4.25453 10.644C4.47136 10.644 4.70139 10.5816 4.87681 10.4062C5.05222 10.2308 5.11453 10.0008 5.11453 9.78395C5.11453 9.56712 5.05222 9.33709 4.87681 9.16168C4.70139 8.98626 4.47136 8.92395 4.25453 8.92395ZM6.9985 9.7828V9.78395V9.7851H6.99965H7.0008V9.78395V9.7828H6.99965H6.9985ZM6.37737 9.16168C6.55279 8.98626 6.78282 8.92395 6.99965 8.92395C7.21648 8.92395 7.44651 8.98626 7.62192 9.16168C7.79734 9.33709 7.85965 9.56712 7.85965 9.78395C7.85965 10.0008 7.79734 10.2308 7.62192 10.4062C7.44651 10.5816 7.21648 10.644 6.99965 10.644C6.78282 10.644 6.55279 10.5816 6.37737 10.4062C6.20196 10.2308 6.13965 10.0008 6.13965 9.78395C6.13965 9.56712 6.20196 9.33709 6.37737 9.16168ZM7.0024 6.78395V6.7828H7.00355H7.00471V6.78395V6.7851H7.00355H7.0024V6.78395ZM7.00355 5.92395C6.78673 5.92395 6.55669 5.98626 6.38128 6.16168C6.20587 6.33709 6.14355 6.56712 6.14355 6.78395C6.14355 7.00078 6.20587 7.23081 6.38128 7.40623C6.55669 7.58164 6.78673 7.64395 7.00355 7.64395C7.22038 7.64395 7.45042 7.58164 7.62583 7.40623C7.80124 7.23081 7.86355 7.00078 7.86355 6.78395C7.86355 6.56712 7.80124 6.33709 7.62583 6.16168C7.45042 5.98626 7.22038 5.92395 7.00355 5.92395ZM9.74557 6.7828V6.78395V6.7851H9.74672H9.74787V6.78395V6.7828H9.74672H9.74557ZM9.12444 6.16168C9.29986 5.98626 9.52989 5.92395 9.74672 5.92395C9.96355 5.92395 10.1936 5.98626 10.369 6.16168C10.5444 6.33709 10.6067 6.56712 10.6067 6.78395C10.6067 7.00078 10.5444 7.23081 10.369 7.40623C10.1936 7.58164 9.96355 7.64395 9.74672 7.64395C9.52989 7.64395 9.29986 7.58164 9.12444 7.40623C8.94903 7.23081 8.88672 7.00078 8.88672 6.78395C8.88672 6.56712 8.94903 6.33709 9.12444 6.16168Z" fill="white"/>
</g>
<defs>
<clipPath id="clip0_2521_26">
<rect width="14" height="14" fill="white"/>
</clipPath>
</defs>
</svg>
