<svg width="14" height="14" viewBox="0 0 14 14" fill="none" xmlns="http://www.w3.org/2000/svg">
<g clip-path="url(#clip0_2521_42)">
<path d="M0.922871 10.5515C1.08882 11.9768 2.29222 13.1084 3.78031 13.1774C4.80886 13.2251 5.85956 13.2499 6.9999 13.2499C8.14025 13.2499 9.19094 13.2251 10.2195 13.1774C11.7076 13.1084 12.911 11.9768 13.0769 10.5515C13.3074 8.57195 13.3074 6.88618 13.0769 4.90661C12.911 3.48135 11.7076 2.34972 10.2195 2.28073C9.19094 2.23304 8.14025 2.20825 6.9999 2.20825C5.85956 2.20825 4.80886 2.23304 3.78031 2.28073C2.29222 2.34972 1.08882 3.48135 0.922871 4.90661C0.692376 6.88618 0.692377 8.57195 0.922871 10.5515Z" fill="#342262"/>
<path d="M0.922871 10.5515C1.08882 11.9768 2.29222 13.1084 3.78031 13.1774C4.80886 13.2251 5.85956 13.2499 6.9999 13.2499C8.14025 13.2499 9.19094 13.2251 10.2195 13.1774C11.7076 13.1084 12.911 11.9768 13.0769 10.5515C13.3074 8.57195 13.3074 6.88618 13.0769 4.90661C12.911 3.48135 11.7076 2.34972 10.2195 2.28073C9.19095 2.23304 8.14025 2.20825 6.9999 2.20825C5.85956 2.20825 4.80886 2.23304 3.78031 2.28073C2.29222 2.34972 1.08882 3.48135 0.922871 4.90661C0.692376 6.88618 0.692377 8.57195 0.922871 10.5515Z" stroke="#A39FBB" stroke-linecap="round" stroke-linejoin="round"/>
<path d="M4.25195 0.75V3.5" stroke="#A39FBB" stroke-linecap="round" stroke-linejoin="round"/>
<path d="M9.74805 0.75V3.5" stroke="#A39FBB" stroke-linecap="round" stroke-linejoin="round"/>
<path d="M4.25293 7.03394C4.09293 7.03394 4.00293 6.94394 4.00293 6.78394C4.00293 6.62394 4.09293 6.53394 4.25293 6.53394" stroke="#A39FBB" stroke-linecap="round" stroke-linejoin="round"/>
<path d="M4.25488 7.03394C4.41488 7.03394 4.50488 6.94394 4.50488 6.78394C4.50488 6.62394 4.41488 6.53394 4.25488 6.53394" stroke="#A39FBB" stroke-linecap="round" stroke-linejoin="round"/>
<path d="M4.25293 10.0339C4.09293 10.0339 4.00293 9.94394 4.00293 9.78394C4.00293 9.62394 4.09293 9.53394 4.25293 9.53394" stroke="#A39FBB" stroke-linecap="round" stroke-linejoin="round"/>
<path d="M4.25488 10.0339C4.41488 10.0339 4.50488 9.94394 4.50488 9.78394C4.50488 9.62394 4.41488 9.53394 4.25488 9.53394" stroke="#A39FBB" stroke-linecap="round" stroke-linejoin="round"/>
<path d="M6.99805 7.03394C6.83805 7.03394 6.74805 6.94394 6.74805 6.78394C6.74805 6.62394 6.83805 6.53394 6.99805 6.53394" stroke="#A39FBB" stroke-linecap="round" stroke-linejoin="round"/>
<path d="M7 7.03394C7.16 7.03394 7.25 6.94394 7.25 6.78394C7.25 6.62394 7.16 6.53394 7 6.53394" stroke="#A39FBB" stroke-linecap="round" stroke-linejoin="round"/>
<path d="M6.99805 10.0339C6.83805 10.0339 6.74805 9.94394 6.74805 9.78394C6.74805 9.62394 6.83805 9.53394 6.99805 9.53394" stroke="#A39FBB" stroke-linecap="round" stroke-linejoin="round"/>
<path d="M7 10.0339C7.16 10.0339 7.25 9.94394 7.25 9.78394C7.25 9.62394 7.16 9.53394 7 9.53394" stroke="#A39FBB" stroke-linecap="round" stroke-linejoin="round"/>
<path d="M9.74512 7.03394C9.58512 7.03394 9.49512 6.94394 9.49512 6.78394C9.49512 6.62394 9.58512 6.53394 9.74512 6.53394" stroke="#A39FBB" stroke-linecap="round" stroke-linejoin="round"/>
<path d="M9.74707 7.03394C9.90707 7.03394 9.99707 6.94394 9.99707 6.78394C9.99707 6.62394 9.90707 6.53394 9.74707 6.53394" stroke="#A39FBB" stroke-linecap="round" stroke-linejoin="round"/>
</g>
<defs>
<clipPath id="clip0_2521_42">
<rect width="14" height="14" fill="white"/>
</clipPath>
</defs>
</svg>
