<svg width="14" height="14" viewBox="0 0 14 14" fill="none" xmlns="http://www.w3.org/2000/svg">
<path d="M3.23867 10.1579C2.03786 10.9577 2.84871 12.5002 4.29148 12.5002H9.70951C11.1522 12.5002 11.9631 10.9577 10.7623 10.1579C9.68522 9.44054 8.39168 9.02246 7.00049 9.02246C5.60931 9.02246 4.31577 9.44054 3.23867 10.1579Z" fill="#342262"/>
<path d="M6.99785 7.43515C5.42673 7.43515 4.54297 6.55139 4.54297 4.98027C4.54297 3.40915 5.42673 2.52539 6.99785 2.52539C8.56897 2.52539 9.45273 3.40915 9.45273 4.98027C9.45273 6.55139 8.56897 7.43515 6.99785 7.43515Z" fill="#342262"/>
<path d="M10.9873 7.04395C11.7331 7.17792 12.4261 7.46369 13.0334 7.86814C13.7993 8.37827 13.5443 9.26536 12.8255 9.60655" stroke="#A39FBB" stroke-linecap="round" stroke-linejoin="round"/>
<path d="M9.81445 1.50653C9.88096 1.50218 9.9492 1.5 10.0191 1.5C11.2786 1.5 11.987 2.20844 11.987 3.46789C11.987 4.21092 11.7404 4.76217 11.2796 5.08931" stroke="#A39FBB" stroke-linecap="round" stroke-linejoin="round"/>
<path d="M10.7613 10.1579C11.9621 10.9577 11.1513 12.5002 9.70852 12.5002H4.2905C2.84773 12.5002 2.03688 10.9577 3.23769 10.1579C4.31479 9.44054 5.60833 9.02246 6.99951 9.02246C8.3907 9.02246 9.68423 9.44054 10.7613 10.1579Z" stroke="#A39FBB" stroke-linecap="round" stroke-linejoin="round"/>
<path d="M7.00175 7.43515C8.57288 7.43515 9.45662 6.55139 9.45662 4.98027C9.45662 3.40915 8.57288 2.52539 7.00175 2.52539C5.43063 2.52539 4.54688 3.40915 4.54688 4.98027C4.54688 6.55139 5.43063 7.43515 7.00175 7.43515Z" stroke="#A39FBB" stroke-linecap="round" stroke-linejoin="round"/>
<path d="M3.01221 7.04395C2.26644 7.17792 1.57336 7.46369 0.966097 7.86814C0.200168 8.37827 0.455207 9.26536 1.17403 9.60655" stroke="#A39FBB" stroke-linecap="round" stroke-linejoin="round"/>
<path d="M4.18527 1.50653C4.11876 1.50218 4.05053 1.5 3.98059 1.5C2.72114 1.5 2.0127 2.20844 2.0127 3.46789C2.0127 4.21092 2.25928 4.76217 2.72012 5.08931" stroke="#A39FBB" stroke-linecap="round" stroke-linejoin="round"/>
</svg>
