<svg width="14" height="14" viewBox="0 0 14 14" fill="none" xmlns="http://www.w3.org/2000/svg">
<path fill-rule="evenodd" clip-rule="evenodd" d="M4.04933 1.00781C4.4123 1.00781 4.75045 1.05864 5.05381 1.16431C4.65199 1.34508 4.27631 1.59507 3.94464 1.92695C3.11025 2.76186 2.79381 3.87547 2.79381 4.98293C2.79381 5.22809 2.80932 5.47355 2.84252 5.71622C2.61474 5.61229 2.41032 5.47323 2.23424 5.29703C1.78565 4.84816 1.57791 4.21526 1.57791 3.48079C1.57791 2.74632 1.78565 2.11342 2.23424 1.66455C2.68282 1.21568 3.31532 1.00781 4.04933 1.00781ZM0.672719 7.4653C1.37016 7.00049 2.16884 6.67549 3.02815 6.5303C3.19013 7.0231 3.44294 7.4875 3.80745 7.89401C3.26465 8.11293 2.74934 8.38596 2.2685 8.70642C1.76092 9.04469 1.35084 9.50964 1.11695 10.0788C0.673393 9.92079 0.322945 9.61021 0.138619 9.22573C0.00279057 8.94242 -0.0429686 8.61501 0.0453426 8.29188C0.134298 7.96638 0.349484 7.68072 0.672719 7.4653ZM13.8613 9.22573C13.6771 9.60999 13.3269 9.92043 12.8837 10.0785C12.6498 9.50949 12.2398 9.04464 11.7323 8.70642C11.2507 8.38547 10.7346 8.11209 10.1908 7.893C10.5549 7.48662 10.8075 7.02243 10.9694 6.5299C11.8296 6.67488 12.6291 7.00006 13.3272 7.4653C13.6504 7.68072 13.8656 7.96638 13.9546 8.29188C14.0429 8.61501 13.9971 8.94242 13.8613 9.22573ZM11.7626 5.29703C11.5867 5.47308 11.3824 5.61206 11.1549 5.71596C11.1881 5.47337 11.2036 5.228 11.2036 4.98293C11.2036 3.87547 10.8871 2.76186 10.0527 1.92695C9.721 1.595 9.34523 1.34498 8.94334 1.16421C9.24662 1.05861 9.58467 1.00781 9.94752 1.00781C10.6815 1.00781 11.314 1.21568 11.7626 1.66455C12.2112 2.11342 12.4189 2.74632 12.4189 3.48079C12.4189 4.21526 12.2112 4.84816 11.7626 5.29703ZM9.16865 2.81091C8.63231 2.27423 7.87609 2.0257 6.99849 2.0257C6.1209 2.0257 5.36467 2.27423 4.82833 2.81091C4.29198 3.3476 4.04361 4.1043 4.04361 4.98245C4.04361 5.8606 4.29198 6.6173 4.82833 7.15399C5.36467 7.69067 6.1209 7.9392 6.99849 7.9392C7.87609 7.9392 8.63231 7.69067 9.16865 7.15399C9.705 6.6173 9.95337 5.8606 9.95337 4.98245C9.95337 4.1043 9.705 3.3476 9.16865 2.81091ZM11.0392 9.74697C9.88254 8.97612 8.49304 8.52688 7.0002 8.52688C5.50736 8.52688 4.11786 8.97612 2.96122 9.74697C2.57475 10.0045 2.31747 10.3461 2.21111 10.7352C2.10552 11.1216 2.16023 11.513 2.32263 11.8518C2.64497 12.5241 3.39221 13.0075 4.29119 13.0075H9.70922C10.6082 13.0075 11.3554 12.5241 11.6778 11.8518C11.8402 11.513 11.8949 11.1216 11.7893 10.7352C11.6829 10.3461 11.4257 10.0045 11.0392 9.74697Z" fill="white"/>
</svg>
