<svg width="14" height="14" viewBox="0 0 14 14" fill="none" xmlns="http://www.w3.org/2000/svg">
<g clip-path="url(#clip0_2521_63)">
<path fill-rule="evenodd" clip-rule="evenodd" d="M2.22529 1.77961C3.41129 0.592773 5.12294 0 7.22353 0C9.32412 0 11.0358 0.592773 12.2218 1.77961C13.4077 2.9664 14 4.67909 14 6.78093C14 8.88276 13.4077 10.5955 12.2218 11.7822C11.0358 12.9691 9.32412 13.5619 7.22353 13.5619C6.06479 13.5619 5.025 13.382 4.1246 13.0202L1.34764 13.9465C0.534937 14.2176 -0.229527 13.4298 0.0625477 12.626L1.02621 9.97401C0.639345 9.0521 0.447103 7.98014 0.447103 6.78093C0.447103 4.67909 1.03936 2.9664 2.22529 1.77961ZM4.1875 5.5C4.1875 5.15482 4.46732 4.875 4.8125 4.875H9.6875C10.0327 4.875 10.3125 5.15482 10.3125 5.5C10.3125 5.84518 10.0327 6.125 9.6875 6.125H4.8125C4.46732 6.125 4.1875 5.84518 4.1875 5.5ZM4.1875 8.5C4.1875 8.15482 4.46732 7.875 4.8125 7.875H8.5C8.84518 7.875 9.125 8.15482 9.125 8.5C9.125 8.84518 8.84518 9.125 8.5 9.125H4.8125C4.46732 9.125 4.1875 8.84518 4.1875 8.5Z" fill="white"/>
</g>
<defs>
<clipPath id="clip0_2521_63">
<rect width="14" height="14" fill="white"/>
</clipPath>
</defs>
</svg>
