<svg width="14" height="14" viewBox="0 0 14 14" fill="none" xmlns="http://www.w3.org/2000/svg">
<g clip-path="url(#clip0_2521_14)">
<path d="M7.22357 13.0619C11.2405 13.0619 13.5 10.8007 13.5 6.78093C13.5 2.76113 11.2405 0.5 7.22357 0.5C3.20666 0.5 0.947143 2.76113 0.947143 6.78093C0.947143 8.00811 1.15773 9.0714 1.56461 9.95647L0.532523 12.7968C0.382996 13.2083 0.774378 13.6106 1.18947 13.4722L4.14475 12.4864C5.01006 12.8658 6.04061 13.0619 7.22357 13.0619Z" fill="#342262"/>
<path d="M7.22357 13.0619C11.2405 13.0619 13.5 10.8007 13.5 6.78093C13.5 2.76113 11.2405 0.5 7.22357 0.5C3.20666 0.5 0.947143 2.76113 0.947143 6.78093C0.947143 8.00811 1.15773 9.0714 1.56461 9.95647L0.532523 12.7968C0.382996 13.2083 0.774378 13.6106 1.18947 13.4722L4.14475 12.4864C5.01006 12.8658 6.04061 13.0619 7.22357 13.0619Z" stroke="#A39FBB" stroke-linecap="round" stroke-linejoin="round"/>
<path d="M4.8125 5.5H9.6875" stroke="#A39FBB" stroke-linecap="round" stroke-linejoin="round"/>
<path d="M4.8125 8.5H8.5" stroke="#A39FBB" stroke-linecap="round" stroke-linejoin="round"/>
</g>
<defs>
<clipPath id="clip0_2521_14">
<rect width="14" height="14" fill="white"/>
</clipPath>
</defs>
</svg>
