<svg width="14" height="14" viewBox="0 0 14 14" fill="none" xmlns="http://www.w3.org/2000/svg">
<g clip-path="url(#clip0_2521_2)">
<path fill-rule="evenodd" clip-rule="evenodd" d="M6.93046 1.62119C6.80534 2.06767 6.75 2.53409 6.75 3C6.75 4.12121 7.07052 5.24539 7.91256 6.08744C8.5825 6.75738 9.43102 7.09719 10.3146 7.20811C10.338 7.22932 10.3615 7.25019 10.3848 7.27097C10.7035 7.55447 11 7.81827 11 8.62025C11 10.4313 7.0536 10.6607 5.74997 10.6606C4.44635 10.6606 0.5 10.4313 0.5 8.62025C0.5 7.81829 0.796491 7.55448 1.11513 7.27097C1.4852 6.9417 1.88514 6.58584 1.88514 5.32944C1.88514 2.8786 3.27648 1.5 5.74997 1.5C6.17611 1.5 6.57014 1.54092 6.93046 1.62119Z" fill="#342262"/>
<path d="M4.20117 12.5945C4.43184 13.1808 4.96521 13.4999 5.74902 13.4999C6.53283 13.4999 7.0662 13.1808 7.29687 12.5945" stroke="white" stroke-linecap="round" stroke-linejoin="round"/>
<path d="M10.8116 7.75054C10.9257 7.95225 11 8.21883 11 8.62025C11 10.4313 7.05359 10.6607 5.74997 10.6606C4.44635 10.6606 0.5 10.4313 0.5 8.62025C0.5 6.88687 1.88514 7.66762 1.88514 5.32944C1.88514 2.8786 3.27648 1.5 5.74997 1.5C5.96727 1.5 6.17621 1.51064 6.37659 1.53171" stroke="white" stroke-linecap="round" stroke-linejoin="round"/>
<path d="M11 5.5C12.6 5.5 13.5 4.6 13.5 3C13.5 1.4 12.6 0.5 11 0.5C9.4 0.5 8.5 1.4 8.5 3C8.5 4.6 9.4 5.5 11 5.5Z" fill="#FEA900"/>
<path d="M11 5.5C12.6 5.5 13.5 4.6 13.5 3C13.5 1.4 12.6 0.5 11 0.5C9.4 0.5 8.5 1.4 8.5 3C8.5 4.6 9.4 5.5 11 5.5Z" stroke="white" stroke-linecap="round" stroke-linejoin="round"/>
</g>
<defs>
<clipPath id="clip0_2521_2">
<rect width="14" height="14" fill="white"/>
</clipPath>
</defs>
</svg>
