<svg width="14" height="14" viewBox="0 0 14 14" fill="none" xmlns="http://www.w3.org/2000/svg">
<path d="M5.37793 12.5193C5.61958 13.1544 6.17835 13.5001 6.99948 13.5001C7.82062 13.5001 8.37939 13.1544 8.62104 12.5193" stroke="white" stroke-linecap="round" stroke-linejoin="round"/>
<path d="M11.0488 4.64856C11.0488 1.99348 9.59124 0.5 6.99997 0.5C4.40869 0.5 2.9511 1.99348 2.9511 4.64856C2.9511 7.18159 1.5 6.33578 1.5 8.2136C1.5 10.1755 5.63427 10.424 6.99997 10.424C8.36567 10.424 12.5 10.1756 12.5 8.2136C12.5 6.33573 11.0488 7.18162 11.0488 4.64856Z" fill="#342262"/>
<path d="M11.0488 4.64856C11.0488 1.99348 9.59124 0.5 6.99997 0.5C4.40869 0.5 2.9511 1.99348 2.9511 4.64856C2.9511 7.18159 1.5 6.33578 1.5 8.2136C1.5 10.1755 5.63427 10.424 6.99997 10.424C8.36567 10.424 12.5 10.1756 12.5 8.2136C12.5 6.33573 11.0488 7.18162 11.0488 4.64856Z" stroke="white" stroke-linecap="round" stroke-linejoin="round"/>
</svg>
