<svg width="14" height="14" viewBox="0 0 14 14" fill="none" xmlns="http://www.w3.org/2000/svg">
<g clip-path="url(#clip0_2521_39)">
<path fill-rule="evenodd" clip-rule="evenodd" d="M4.31522 12.3095C3.99679 12.2827 3.71889 12.5526 3.8326 12.8512C3.92274 13.088 4.05347 13.2933 4.22476 13.463C4.58618 13.821 5.10809 14.0001 5.74944 14.0001C6.39079 14.0001 6.91269 13.821 7.27411 13.463C7.44543 13.2933 7.57617 13.0879 7.66631 12.8511C7.78001 12.5525 7.50209 12.2826 7.18366 12.3094C6.59636 12.359 6.08654 12.3723 5.74892 12.3723C5.41151 12.3723 4.90209 12.359 4.31522 12.3095ZM11 7.25012C11.0238 7.25012 11.0476 7.24998 11.0714 7.24968C11.1187 7.30708 11.1645 7.36905 11.2064 7.43585C11.3971 7.73987 11.4992 8.11355 11.4992 8.61784C11.4992 9.28421 11.1253 9.77299 10.651 10.1084C10.1866 10.4369 9.58306 10.6539 8.983 10.8019C7.77661 11.0996 6.41807 11.1574 5.74958 11.1574C5.08111 11.1574 3.72258 11.0996 2.5162 10.8019C1.91615 10.6539 1.31258 10.4369 0.848212 10.1084C0.373916 9.77298 0 9.2842 0 8.61784C0 8.11356 0.102153 7.73988 0.292841 7.43588C0.444871 7.1935 0.647203 7.01482 0.791928 6.88702C0.815211 6.86645 0.837005 6.84721 0.856857 6.82923C1.01112 6.68951 1.12611 6.56786 1.21429 6.37594C1.30528 6.17792 1.38504 5.86507 1.38504 5.32837C1.38504 4.0101 1.76106 2.91003 2.53796 2.1405C3.31415 1.37167 4.42219 1.00049 5.74959 1.00049C6.22797 1.00049 6.67785 1.0487 7.09399 1.14635C6.85254 1.73083 6.75 2.36595 6.75 3.00012C6.75 4.12133 7.07052 5.24551 7.91256 6.08756C8.75461 6.92961 9.87879 7.25012 11 7.25012Z" fill="white"/>
<path fill-rule="evenodd" clip-rule="evenodd" d="M8.79645 0.791969C9.34046 0.247954 10.108 -0.00447795 11 -0.00447795C11.892 -0.00447795 12.6595 0.247954 13.2036 0.791969C13.7476 1.33598 14 2.10349 14 2.99552C14 3.88755 13.7476 4.65506 13.2036 5.19907C12.6595 5.74309 11.892 5.99552 11 5.99552C10.108 5.99552 9.34046 5.74309 8.79645 5.19907C8.25243 4.65506 8 3.88755 8 2.99552C8 2.10349 8.25243 1.33598 8.79645 0.791969Z" fill="#FEA900"/>
</g>
<defs>
<clipPath id="clip0_2521_39">
<rect width="14" height="14" fill="white"/>
</clipPath>
</defs>
</svg>
