<svg width="14" height="14" viewBox="0 0 14 14" fill="none" xmlns="http://www.w3.org/2000/svg">
<g clip-path="url(#clip0_2521_20)">
<path fill-rule="evenodd" clip-rule="evenodd" d="M3.64598 1.2294C4.45269 0.402827 5.60892 0 6.99997 0C8.39102 0 9.54725 0.402827 10.354 1.2294C11.1589 2.05417 11.5488 3.23224 11.5488 4.64856C11.5488 5.23605 11.6333 5.58372 11.7325 5.80717C11.8287 6.02374 11.954 6.15989 12.1163 6.3119C12.1375 6.33179 12.1607 6.35295 12.1853 6.37544C12.3372 6.51436 12.5448 6.70406 12.7008 6.96129C12.895 7.2815 13 7.67589 13 8.2136C13 8.91029 12.6225 9.42835 12.1279 9.79021C11.6445 10.1439 11.0144 10.3786 10.3858 10.539C9.12283 10.8614 7.70017 10.924 6.99997 10.924C6.29977 10.924 4.87713 10.8614 3.6142 10.539C2.98558 10.3786 2.35547 10.1439 1.87208 9.7902C1.3775 9.42834 1 8.91028 1 8.2136C1 7.6759 1.10503 7.28152 1.29919 6.96132C1.45517 6.70409 1.66271 6.51438 1.8147 6.37546C1.8393 6.35298 1.86245 6.33181 1.88368 6.31191C2.04593 6.1599 2.17121 6.02374 2.26742 5.80717C2.36668 5.58372 2.4511 5.23604 2.4511 4.64856C2.4511 3.23224 2.84102 2.05417 3.64598 1.2294ZM4.67676 12.5359C4.58034 12.2825 4.86784 12.0623 5.13742 12.0916C5.90153 12.1748 6.57864 12.1954 6.99978 12.1954C7.42077 12.1954 8.09756 12.1748 8.86133 12.0917C9.13084 12.0624 9.41824 12.2825 9.32184 12.5359C9.1456 12.9992 8.84115 13.3807 8.4172 13.6386C8.00083 13.8919 7.51284 14.0001 6.9993 14.0001C6.48576 14.0001 5.99777 13.8919 5.58141 13.6386C5.15746 13.3807 4.85301 12.9992 4.67676 12.5359Z" fill="white"/>
</g>
<defs>
<clipPath id="clip0_2521_20">
<rect width="14" height="14" fill="white"/>
</clipPath>
</defs>
</svg>
